<?xml version="1.0" encoding="UTF-8"?>
<svg xmlns="http://www.w3.org/2000/svg" xmlns:xlink="http://www.w3.org/1999/xlink" width="100pt" height="100pt" viewBox="0 0 100 100" version="1.1">
<g id="surface1">
<path style=" stroke:none;fill-rule:nonzero;fill:rgb(24.313725%,74.901961%,73.72549%);fill-opacity:1;" d="M 14.9375 73.753906 L 14.550781 73.6875 L 14.550781 73.4375 L 17.523438 73.4375 L 18.195312 77.765625 L 19.351562 74.441406 L 19.6875 74.441406 L 20.84375 77.765625 L 21.449219 73.90625 C 21.46875 73.738281 21.53125 73.601562 21.617188 73.535156 C 21.699219 73.472656 21.851562 73.417969 22.054688 73.417969 L 24.488281 73.417969 L 24.488281 73.671875 L 24.101562 73.738281 C 23.933594 73.753906 23.832031 73.835938 23.800781 73.988281 L 22.84375 79.894531 L 21.25 79.894531 L 19.519531 74.945312 L 17.808594 79.894531 L 16.214844 79.894531 L 15.257812 73.988281 C 15.207031 73.855469 15.105469 73.773438 14.9375 73.753906 Z M 14.9375 73.753906 "/>
<path style=" stroke:none;fill-rule:nonzero;fill:rgb(24.313725%,74.901961%,73.72549%);fill-opacity:1;" d="M 29.054688 79.507812 C 29.320312 79.375 29.472656 79.171875 29.472656 78.886719 C 29.472656 78.636719 29.40625 78.433594 29.289062 78.285156 C 29.167969 78.132812 28.984375 78 28.75 77.882812 C 28.515625 77.765625 28.144531 77.613281 27.644531 77.429688 C 27.039062 77.195312 26.566406 77.007812 26.234375 76.839844 C 25.898438 76.671875 25.644531 76.472656 25.445312 76.21875 C 25.242188 75.96875 25.140625 75.648438 25.140625 75.246094 C 25.140625 74.574219 25.460938 74.089844 26.082031 73.773438 C 26.703125 73.453125 27.527344 73.300781 28.515625 73.300781 C 28.953125 73.300781 29.386719 73.335938 29.824219 73.402344 C 30.261719 73.472656 30.648438 73.570312 31.015625 73.703125 L 30.917969 75.414062 L 30.664062 75.414062 C 30.511719 74.761719 30.246094 74.308594 29.890625 74.039062 C 29.539062 73.773438 29.085938 73.636719 28.566406 73.636719 C 28.144531 73.636719 27.8125 73.703125 27.574219 73.835938 C 27.339844 73.972656 27.222656 74.191406 27.222656 74.476562 C 27.222656 74.675781 27.273438 74.84375 27.390625 74.980469 C 27.507812 75.113281 27.675781 75.246094 27.910156 75.363281 C 28.144531 75.480469 28.515625 75.632812 29.019531 75.835938 C 29.691406 76.085938 30.175781 76.304688 30.511719 76.472656 C 30.847656 76.640625 31.101562 76.859375 31.269531 77.109375 C 31.453125 77.359375 31.539062 77.695312 31.539062 78.097656 C 31.539062 78.519531 31.4375 78.886719 31.234375 79.15625 C 31.03125 79.441406 30.664062 79.660156 30.144531 79.808594 C 29.625 79.960938 28.886719 80.046875 27.960938 80.046875 C 27.542969 80.046875 27.074219 80.011719 26.566406 79.945312 C 26.066406 79.878906 25.679688 79.777344 25.378906 79.660156 L 25.476562 77.929688 L 25.730469 77.929688 C 25.929688 78.621094 26.214844 79.074219 26.585938 79.339844 C 26.953125 79.589844 27.390625 79.726562 27.929688 79.726562 C 28.398438 79.707031 28.785156 79.644531 29.054688 79.507812 Z M 29.054688 79.507812 "/>
<path style=" stroke:none;fill-rule:nonzero;fill:rgb(24.313725%,74.901961%,73.72549%);fill-opacity:1;" d="M 36.320312 74.242188 L 35.714844 75.902344 L 33.800781 75.902344 C 33.484375 75.902344 33.214844 75.800781 33.011719 75.617188 C 32.8125 75.414062 32.695312 75.148438 32.695312 74.792969 C 32.695312 74.660156 32.710938 74.507812 32.761719 74.324219 L 32.945312 73.535156 L 33.234375 73.535156 L 33.234375 73.773438 C 33.234375 73.921875 33.28125 74.023438 33.367188 74.074219 C 33.449219 74.125 33.601562 74.140625 33.800781 74.140625 L 36.253906 74.140625 Z M 36.320312 77.695312 L 35.714844 79.359375 L 33.800781 79.359375 C 33.484375 79.359375 33.214844 79.257812 33.011719 79.074219 C 32.8125 78.871094 32.695312 78.601562 32.695312 78.25 C 32.695312 78.113281 32.710938 77.964844 32.761719 77.78125 L 32.945312 76.992188 L 33.234375 76.992188 L 33.234375 77.226562 C 33.234375 77.378906 33.28125 77.476562 33.367188 77.527344 C 33.449219 77.582031 33.601562 77.597656 33.800781 77.597656 L 36.253906 77.597656 Z M 36.320312 77.695312 "/>
<path style=" stroke:none;fill-rule:nonzero;fill:rgb(24.313725%,74.901961%,73.72549%);fill-opacity:1;" d="M 40.988281 79.171875 C 41.222656 79.304688 41.507812 79.390625 41.824219 79.390625 C 42.128906 79.390625 42.328125 79.304688 42.429688 79.140625 C 42.53125 78.96875 42.582031 78.667969 42.582031 78.199219 L 42.582031 74.222656 C 42.582031 74.140625 42.5625 74.074219 42.53125 74.039062 C 42.496094 74.003906 42.414062 73.972656 42.296875 73.957031 L 41.910156 73.890625 L 41.910156 73.636719 L 44.730469 73.285156 L 44.980469 73.285156 L 44.980469 78.046875 C 44.980469 78.71875 44.796875 79.222656 44.445312 79.542969 C 44.074219 79.878906 43.472656 80.03125 42.617188 80.03125 C 42.09375 80.03125 41.625 79.925781 41.238281 79.726562 C 40.835938 79.523438 40.515625 79.273438 40.28125 78.988281 C 40.28125 79.257812 40.214844 79.476562 40.097656 79.644531 C 39.960938 79.808594 39.777344 79.894531 39.542969 79.894531 L 37.242188 79.894531 L 37.242188 79.644531 L 37.628906 79.574219 C 37.746094 79.558594 37.832031 79.523438 37.863281 79.492188 C 37.898438 79.457031 37.917969 79.40625 37.917969 79.304688 L 37.917969 74.207031 C 37.917969 74.125 37.898438 74.054688 37.863281 74.023438 C 37.832031 73.988281 37.746094 73.957031 37.628906 73.9375 L 37.242188 73.871094 L 37.242188 73.636719 L 40.0625 73.285156 L 40.3125 73.285156 L 40.3125 78.601562 C 40.515625 78.835938 40.75 79.023438 40.988281 79.171875 Z M 40.988281 79.171875 "/>
<path style=" stroke:none;fill-rule:nonzero;fill:rgb(24.313725%,74.901961%,73.72549%);fill-opacity:1;" d="M 50.855469 75.617188 C 51.191406 75.550781 51.410156 75.398438 51.542969 75.164062 C 51.679688 74.929688 51.726562 74.574219 51.726562 74.105469 C 51.726562 73.90625 51.679688 73.703125 51.59375 73.519531 C 51.761719 73.453125 51.964844 73.402344 52.199219 73.351562 C 52.433594 73.300781 52.667969 73.285156 52.902344 73.285156 C 53.339844 73.285156 53.640625 73.367188 53.824219 73.554688 C 54.011719 73.738281 54.09375 73.988281 54.09375 74.359375 C 54.09375 74.746094 53.925781 75.078125 53.589844 75.382812 C 53.253906 75.683594 52.6875 75.867188 51.878906 75.953125 C 52.398438 76.003906 52.800781 76.066406 53.085938 76.1875 C 53.375 76.285156 53.589844 76.453125 53.726562 76.691406 C 53.859375 76.90625 53.925781 77.226562 53.925781 77.628906 L 53.925781 79.375 C 53.925781 79.457031 53.941406 79.523438 53.976562 79.558594 C 54.011719 79.589844 54.09375 79.625 54.210938 79.644531 L 54.597656 79.707031 L 54.597656 79.945312 L 52.164062 79.945312 C 51.746094 79.945312 51.542969 79.726562 51.542969 79.273438 L 51.542969 77.476562 C 51.542969 77.042969 51.492188 76.722656 51.375 76.523438 C 51.277344 76.320312 51.070312 76.1875 50.769531 76.152344 C 50.554688 76.121094 50.101562 76.101562 49.378906 76.101562 L 49.378906 79.390625 C 49.378906 79.476562 49.394531 79.542969 49.429688 79.574219 C 49.460938 79.609375 49.546875 79.644531 49.664062 79.660156 L 50.03125 79.726562 L 50.03125 79.960938 L 46.308594 79.960938 L 46.308594 79.726562 L 46.691406 79.660156 C 46.808594 79.644531 46.894531 79.609375 46.929688 79.574219 C 46.960938 79.542969 46.980469 79.492188 46.980469 79.390625 L 46.980469 74.292969 C 46.980469 74.207031 46.960938 74.140625 46.929688 74.105469 C 46.894531 74.074219 46.808594 74.039062 46.691406 74.023438 L 46.308594 73.957031 L 46.308594 73.636719 L 49.125 73.285156 L 49.378906 73.285156 L 49.378906 75.683594 C 50.082031 75.699219 50.585938 75.667969 50.855469 75.617188 Z M 50.855469 75.617188 "/>
<path style=" stroke:none;fill-rule:nonzero;fill:rgb(24.313725%,74.901961%,73.72549%);fill-opacity:1;" d="M 57.332031 79.660156 L 57.769531 79.589844 C 57.886719 79.574219 57.953125 79.558594 57.988281 79.507812 C 58.023438 79.476562 58.054688 79.40625 58.054688 79.304688 L 58.054688 75.214844 C 58.054688 74.695312 57.96875 74.34375 57.804688 74.15625 C 57.636719 73.972656 57.351562 73.871094 56.929688 73.871094 C 56.359375 73.871094 55.773438 74.054688 55.21875 74.410156 L 55.015625 74.105469 C 55.859375 73.554688 56.863281 73.285156 58.023438 73.285156 C 58.894531 73.285156 59.515625 73.453125 59.886719 73.804688 C 60.253906 74.15625 60.457031 74.695312 60.457031 75.433594 L 60.457031 79.304688 C 60.457031 79.390625 60.472656 79.457031 60.503906 79.492188 C 60.539062 79.523438 60.625 79.558594 60.742188 79.574219 L 61.125 79.644531 L 61.125 79.894531 L 57.332031 79.894531 Z M 57.332031 79.660156 "/>
<path style=" stroke:none;fill-rule:nonzero;fill:rgb(24.313725%,74.901961%,73.72549%);fill-opacity:1;" d="M 68.429688 79.457031 C 67.925781 79.84375 67.050781 80.046875 65.808594 80.046875 C 64.566406 80.046875 63.675781 79.84375 63.175781 79.457031 C 62.671875 79.074219 62.421875 78.5 62.421875 77.765625 L 62.421875 76.691406 C 62.421875 76.472656 62.453125 76.285156 62.535156 76.121094 C 62.621094 75.96875 62.738281 75.785156 62.90625 75.582031 C 63.074219 75.382812 63.207031 75.195312 63.308594 75.011719 C 63.394531 74.84375 63.445312 74.644531 63.445312 74.390625 C 63.445312 74.15625 63.410156 73.972656 63.324219 73.871094 C 63.242188 73.753906 63.089844 73.703125 62.890625 73.703125 C 62.636719 73.703125 62.453125 73.773438 62.320312 73.90625 C 62.183594 74.039062 62.117188 74.222656 62.117188 74.476562 C 62.117188 74.609375 62.132812 74.746094 62.148438 74.859375 L 61.832031 74.859375 C 61.78125 74.746094 61.765625 74.609375 61.765625 74.441406 C 61.765625 74.089844 61.898438 73.804688 62.167969 73.601562 C 62.4375 73.402344 62.957031 73.300781 63.746094 73.300781 C 64.988281 73.300781 65.625 73.71875 65.625 74.558594 C 65.625 74.746094 65.59375 74.910156 65.542969 75.046875 C 65.476562 75.195312 65.390625 75.363281 65.257812 75.566406 C 65.121094 75.765625 65.039062 75.953125 64.953125 76.136719 C 64.886719 76.304688 64.855469 76.503906 64.855469 76.722656 L 64.855469 78.167969 C 64.855469 78.566406 64.886719 78.886719 64.9375 79.089844 C 64.988281 79.289062 65.085938 79.476562 65.222656 79.574219 C 65.355469 79.675781 65.574219 79.726562 65.859375 79.726562 C 66.144531 79.726562 66.363281 79.675781 66.496094 79.574219 C 66.632812 79.476562 66.734375 79.304688 66.785156 79.089844 C 66.832031 78.871094 66.847656 78.566406 66.847656 78.167969 L 66.847656 77.160156 C 66.847656 76.757812 66.832031 76.4375 66.800781 76.238281 C 66.765625 76.019531 66.714844 75.867188 66.632812 75.765625 C 66.546875 75.667969 66.429688 75.632812 66.28125 75.632812 L 65.894531 75.632812 L 65.894531 75.296875 L 66.347656 75.296875 C 66.582031 75.296875 66.734375 75.246094 66.816406 75.128906 C 66.902344 75.011719 66.949219 74.84375 66.949219 74.609375 L 66.949219 73.472656 L 69.234375 73.199219 L 69.335938 73.199219 L 69.335938 74.15625 C 69.335938 74.558594 69.21875 74.878906 68.980469 75.113281 C 68.746094 75.347656 68.445312 75.5 68.058594 75.550781 C 68.460938 75.601562 68.765625 75.75 68.964844 76.003906 C 69.148438 76.253906 69.25 76.640625 69.25 77.160156 L 69.25 77.765625 C 69.183594 78.5 68.933594 79.074219 68.429688 79.457031 Z M 68.429688 79.457031 "/>
<path style=" stroke:none;fill-rule:nonzero;fill:rgb(24.313725%,74.901961%,73.72549%);fill-opacity:1;" d="M 75.828125 79.523438 L 75.828125 79.121094 C 75.578125 79.375 75.257812 79.589844 74.855469 79.777344 C 74.453125 79.960938 74 80.046875 73.496094 80.046875 C 72.640625 80.046875 72.019531 79.878906 71.667969 79.558594 C 71.300781 79.222656 71.113281 78.734375 71.113281 78.066406 L 71.113281 74.242188 C 71.113281 74.15625 71.097656 74.089844 71.0625 74.054688 C 71.03125 74.023438 70.945312 73.988281 70.828125 73.972656 L 70.441406 73.90625 L 70.441406 73.636719 L 73.261719 73.285156 L 73.515625 73.285156 L 73.515625 78.183594 C 73.515625 78.636719 73.582031 78.953125 73.699219 79.140625 C 73.816406 79.324219 74.050781 79.40625 74.386719 79.40625 C 74.671875 79.40625 74.925781 79.339844 75.15625 79.207031 C 75.394531 79.074219 75.613281 78.902344 75.8125 78.703125 L 75.8125 74.207031 C 75.8125 74.125 75.796875 74.054688 75.761719 74.023438 C 75.730469 73.988281 75.644531 73.957031 75.527344 73.9375 L 75.140625 73.871094 L 75.140625 73.636719 L 77.960938 73.285156 L 78.214844 73.285156 L 78.214844 79.304688 C 78.214844 79.390625 78.230469 79.457031 78.261719 79.492188 C 78.296875 79.523438 78.382812 79.558594 78.5 79.574219 L 78.882812 79.644531 L 78.882812 79.894531 L 76.234375 79.894531 C 75.964844 79.894531 75.828125 79.777344 75.828125 79.523438 Z M 75.828125 79.523438 "/>
<path style=" stroke:none;fill-rule:nonzero;fill:rgb(24.313725%,74.901961%,73.72549%);fill-opacity:1;" d="M 84.84375 79.207031 L 84.84375 75.0625 C 84.84375 74.675781 84.808594 74.390625 84.742188 74.191406 C 84.675781 73.988281 84.558594 73.835938 84.40625 73.753906 C 84.238281 73.671875 84.003906 73.621094 83.683594 73.621094 C 83.332031 73.621094 82.980469 73.652344 82.609375 73.738281 L 82.609375 79.289062 C 82.609375 79.375 82.625 79.441406 82.660156 79.476562 C 82.695312 79.507812 82.777344 79.542969 82.894531 79.558594 L 83.265625 79.625 L 83.265625 79.878906 L 79.539062 79.878906 L 79.539062 79.625 L 79.925781 79.558594 C 80.042969 79.542969 80.125 79.507812 80.160156 79.476562 C 80.191406 79.441406 80.210938 79.390625 80.210938 79.289062 L 80.210938 76.167969 C 80.210938 75.835938 80.3125 75.535156 80.511719 75.296875 C 80.714844 75.0625 81 74.894531 81.371094 74.792969 L 81.371094 74.644531 L 79.839844 74.359375 L 79.839844 74.171875 C 81.132812 73.570312 82.507812 73.269531 83.9375 73.269531 C 85.113281 73.269531 85.949219 73.4375 86.453125 73.789062 C 86.957031 74.140625 87.207031 74.675781 87.207031 75.398438 L 87.207031 79.289062 C 87.207031 79.375 87.226562 79.441406 87.261719 79.476562 C 87.292969 79.507812 87.375 79.542969 87.496094 79.558594 L 87.878906 79.625 L 87.878906 79.878906 L 85.445312 79.878906 C 85.042969 79.894531 84.84375 79.675781 84.84375 79.207031 Z M 84.84375 79.207031 "/>
<path style=" stroke:none;fill-rule:nonzero;fill:rgb(24.313725%,74.901961%,73.72549%);fill-opacity:1;" d="M 13.59375 62.082031 C 14.25 62.347656 14.90625 62.632812 15.609375 62.734375 C 16.769531 62.917969 17.539062 62.433594 18.042969 61.390625 C 18.582031 60.285156 19.519531 59.53125 20.558594 58.945312 C 22.609375 57.753906 24.855469 58.054688 26.90625 59.75 C 27.324219 60.101562 27.726562 60.46875 28.097656 60.871094 C 28.3125 61.105469 28.484375 61.125 28.75 61.039062 C 30.765625 60.453125 32.796875 60.269531 34.84375 60.789062 C 36.371094 61.175781 37.695312 61.964844 38.71875 63.1875 C 38.902344 63.40625 39.023438 63.574219 39.171875 63.152344 C 40.769531 59.078125 45.601562 57.199219 49.898438 59.28125 C 51.996094 60.285156 53.105469 61.910156 53.441406 64.160156 C 53.507812 64.59375 53.441406 65.015625 53.222656 65.417969 C 52.03125 67.632812 50.316406 69.074219 47.683594 69.023438 C 46.441406 69.007812 45.25 68.757812 44.359375 67.734375 C 43.015625 66.207031 43.4375 63.304688 45.164062 62.230469 C 46.089844 61.660156 47.042969 61.746094 47.96875 62.246094 C 48.554688 62.582031 48.875 63.457031 48.722656 64.160156 C 48.589844 64.78125 48.1875 65.167969 47.566406 65.316406 C 47.097656 65.433594 46.675781 65.300781 46.324219 64.964844 C 46.222656 64.863281 46.121094 64.730469 45.972656 64.898438 C 45.820312 65.066406 45.972656 65.167969 46.070312 65.25 C 46.625 65.738281 47.246094 65.820312 47.917969 65.585938 C 48.640625 65.332031 49.042969 64.796875 49.109375 64.027344 C 49.226562 62.800781 48.539062 61.863281 47.332031 61.578125 C 45.570312 61.15625 44.023438 62.097656 43.402344 63.992188 C 42.511719 66.742188 44.089844 69.058594 46.996094 69.34375 C 49.882812 69.613281 52.011719 68.402344 53.324219 65.921875 C 54.917969 62.882812 57.5 61.375 60.707031 60.652344 C 62.085938 60.335938 63.476562 60.300781 64.886719 60.371094 C 65.324219 60.386719 65.574219 60.269531 65.839844 59.917969 C 67.992188 57.148438 70.777344 55.605469 74.335938 55.859375 C 76.46875 56.007812 78.515625 56.578125 80.410156 57.617188 C 81.183594 58.039062 81.855469 58.589844 82.140625 59.480469 C 82.171875 59.597656 82.207031 59.679688 82.359375 59.648438 C 84.589844 59.246094 85.882812 60.535156 86.925781 62.230469 C 87.410156 63.035156 87.730469 63.910156 87.8125 64.863281 C 87.878906 65.535156 88.0625 65.769531 88.703125 65.953125 C 88.957031 66.023438 89.242188 66.039062 89.507812 66.074219 C 89.507812 66.140625 89.507812 66.207031 89.507812 66.257812 C 88.617188 66.441406 87.710938 66.292969 86.824219 66.308594 C 86.117188 66.324219 85.414062 66.257812 84.707031 66.238281 C 84.523438 66.238281 84.371094 66.238281 84.289062 66.003906 C 83.816406 64.746094 82.796875 64.261719 81.554688 64.128906 C 80.78125 64.042969 80.007812 64.160156 79.253906 64.328125 C 79.070312 64.359375 78.933594 64.410156 78.816406 64.195312 C 77.542969 61.746094 75.058594 61.039062 72.421875 61.761719 C 70.441406 62.296875 68.980469 63.503906 67.839844 65.167969 C 67.691406 65.382812 67.570312 65.519531 67.269531 65.484375 C 65.207031 65.25 63.777344 66.359375 63.140625 68.320312 C 63.058594 68.589844 62.972656 68.871094 62.90625 69.140625 C 62.703125 69.140625 62.605469 68.992188 62.484375 68.90625 C 60.890625 67.800781 59.28125 67.902344 57.636719 68.925781 C 55.976562 69.945312 54.414062 71.171875 52.464844 71.707031 C 49.027344 72.679688 46.15625 71.824219 43.773438 69.207031 C 43.269531 68.65625 43.285156 68.65625 42.5625 68.941406 C 41.421875 69.394531 40.265625 69.777344 39.007812 69.5625 C 38.335938 69.441406 37.8125 69.105469 37.445312 68.523438 C 36.671875 67.296875 35.714844 66.238281 34.390625 65.566406 C 32.863281 64.796875 31.25 64.679688 29.589844 64.949219 C 29.289062 65 29.039062 64.949219 28.785156 64.796875 C 27.476562 63.976562 26.082031 63.371094 24.539062 63.203125 C 23.261719 63.070312 22.070312 63.320312 21.011719 64.074219 C 18.328125 66.039062 14.90625 65.148438 13.511719 62.128906 C 13.542969 62.113281 13.5625 62.097656 13.59375 62.082031 Z M 13.59375 62.082031 "/>
<path style=" stroke:none;fill-rule:nonzero;fill:rgb(100%,84.313725%,58.431373%);fill-opacity:1;" d="M 32.039062 59.378906 C 31.066406 59.414062 30.09375 59.53125 29.136719 59.765625 C 28.886719 59.832031 28.71875 59.714844 28.550781 59.53125 C 27.023438 57.851562 25.09375 57.148438 22.84375 57.265625 C 21.699219 57.332031 20.609375 57.6875 19.535156 58.105469 C 18.882812 58.355469 18.78125 58.304688 18.78125 57.617188 C 18.78125 54.3125 18.730469 51.023438 18.796875 47.722656 C 18.867188 43.828125 19.722656 40.089844 21.25 36.5 C 22.441406 33.664062 24.019531 31.066406 25.980469 28.699219 C 28.246094 25.984375 30.882812 23.699219 33.921875 21.871094 C 37.160156 19.925781 40.632812 18.585938 44.359375 17.878906 C 46.910156 17.394531 49.496094 17.226562 52.078125 17.394531 C 56.476562 17.679688 60.65625 18.785156 64.566406 20.832031 C 66.933594 22.074219 69.132812 23.582031 71.128906 25.378906 C 74.300781 28.214844 76.789062 31.570312 78.597656 35.410156 C 79.925781 38.226562 80.796875 41.179688 81.25 44.285156 C 81.503906 46.0625 81.535156 47.839844 81.535156 49.617188 C 81.535156 51.949219 81.535156 54.28125 81.535156 56.613281 C 81.535156 57.050781 81.4375 57.082031 81.050781 56.898438 C 79.117188 56.023438 77.121094 55.351562 75.023438 55.070312 C 72.792969 54.765625 70.578125 54.765625 68.460938 55.773438 C 67.070312 56.445312 65.996094 57.449219 65.171875 58.726562 C 65.003906 58.992188 64.820312 59.09375 64.519531 59.078125 C 63.828125 59.0625 63.125 59.0625 62.4375 59.0625 C 62.503906 58.707031 62.570312 58.371094 62.621094 58.019531 C 62.855469 56.644531 63.628906 55.65625 64.804688 54.933594 C 65.121094 54.75 65.457031 54.601562 65.792969 54.429688 C 66.128906 54.261719 66.113281 54.09375 65.808594 53.929688 C 65.742188 53.894531 65.675781 53.84375 65.542969 53.777344 C 66.882812 53.339844 68.160156 52.921875 69.417969 52.503906 C 69.601562 52.433594 69.855469 52.433594 69.871094 52.214844 C 69.90625 51.914062 70.121094 51.882812 70.324219 51.8125 C 73.011719 51.042969 75.695312 50.273438 78.398438 49.515625 C 78.816406 49.398438 79.050781 49.148438 79.289062 48.746094 C 79.117188 48.796875 79 48.8125 78.902344 48.84375 C 75.761719 49.785156 72.625 50.742188 69.46875 51.664062 C 67.183594 52.335938 64.902344 53.023438 62.605469 53.59375 C 61.480469 53.859375 60.339844 53.8125 59.195312 53.894531 C 56.761719 54.0625 54.328125 54.230469 51.878906 54.414062 C 51.644531 54.429688 51.59375 54.363281 51.695312 54.148438 C 51.894531 53.675781 52.078125 53.191406 52.25 52.703125 C 52.6875 51.445312 52.6875 51.445312 54.011719 51.8125 C 55.167969 52.132812 56.125 52.769531 56.949219 53.792969 C 56.980469 52.351562 57.015625 51.023438 56.777344 49.699219 C 56.542969 48.359375 56.023438 47.21875 54.785156 46.511719 C 54.582031 46.414062 54.414062 46.261719 54.230469 46.128906 C 54.113281 46.042969 54.027344 45.960938 54.078125 45.808594 C 54.160156 45.574219 54.144531 45.304688 54.3125 45.054688 C 54.96875 45.523438 55.503906 46.078125 56.023438 46.679688 C 56.160156 46.832031 56.277344 46.984375 56.460938 46.730469 C 57.132812 45.890625 57.585938 44.953125 57.738281 43.863281 C 57.921875 42.503906 57.5 41.550781 56.242188 40.910156 C 55.152344 40.359375 55.203125 40.289062 55.402344 39.101562 C 55.46875 38.730469 55.554688 38.648438 55.921875 38.816406 C 57.148438 39.417969 57.96875 40.339844 58.359375 41.71875 C 59.179688 40.976562 59.699219 40.089844 59.953125 39.082031 C 60.4375 37.21875 60.035156 35.492188 59.28125 33.78125 C 59.214844 33.632812 59.078125 33.53125 58.945312 33.445312 C 58.15625 32.859375 57.367188 32.273438 56.578125 31.703125 C 56.34375 31.535156 56.242188 31.351562 56.257812 31.066406 C 56.277344 29.621094 56.257812 28.164062 56.257812 26.71875 C 56.257812 26.183594 56.242188 26.148438 55.757812 26.367188 C 55.253906 26.601562 54.765625 26.570312 54.3125 26.300781 C 53.589844 25.863281 52.902344 26.082031 52.132812 26.367188 C 52.75 26.484375 53.390625 26.417969 53.757812 26.921875 C 54.011719 27.273438 54.328125 27.40625 54.699219 27.542969 C 55.082031 27.695312 55.671875 27.609375 55.839844 27.945312 C 56.023438 28.28125 55.875 28.785156 55.875 29.21875 C 55.875 29.824219 55.839844 30.410156 55.738281 31.066406 C 54.429688 30.09375 53.171875 29.152344 51.796875 28.148438 C 51.84375 29.925781 51.914062 31.570312 51.8125 33.214844 C 51.710938 34.871094 51.578125 36.535156 50.972656 38.144531 C 51.945312 38.074219 52.886719 38.074219 53.808594 38.195312 C 54.785156 38.328125 54.785156 38.3125 54.632812 39.265625 C 54.613281 39.386719 54.597656 39.484375 54.582031 39.601562 C 54.546875 39.921875 54.414062 39.957031 54.144531 39.820312 C 53.253906 39.417969 52.316406 39.101562 51.375 38.847656 C 51.089844 38.765625 50.941406 38.765625 50.90625 39.117188 C 50.871094 39.46875 50.789062 39.839844 50.570312 40.121094 C 50.132812 40.710938 50.214844 41.347656 50.300781 42 C 50.316406 42.152344 50.351562 42.320312 50.335938 42.488281 C 50.300781 42.804688 50.46875 42.925781 50.738281 43.023438 C 51.558594 43.3125 52.316406 43.730469 53.085938 44.148438 C 53.558594 44.398438 53.605469 44.703125 53.472656 45.171875 C 53.375 45.488281 53.289062 45.507812 53.019531 45.359375 C 52.332031 44.96875 51.644531 44.585938 50.941406 44.214844 C 50.335938 43.914062 50.316406 43.929688 50.269531 44.632812 C 50.101562 46.765625 49.546875 48.777344 48.523438 50.65625 C 48.152344 51.328125 48.253906 51.460938 47.632812 50.757812 L 47.667969 50.722656 C 47.902344 50.773438 47.933594 50.574219 48.003906 50.457031 C 49.597656 47.554688 50.015625 44.417969 49.714844 41.164062 C 49.699219 40.894531 49.5625 40.742188 49.34375 40.609375 C 48.335938 40.039062 47.347656 39.453125 46.339844 38.863281 C 46.207031 38.78125 45.988281 38.746094 46.039062 38.496094 C 46.140625 38.027344 46.207031 37.554688 46.289062 37.054688 C 46.390625 37.105469 46.457031 37.121094 46.507812 37.15625 C 47.429688 37.707031 48.355469 38.261719 49.261719 38.847656 C 49.53125 39.015625 49.679688 38.964844 49.867188 38.746094 C 50.234375 38.328125 50.453125 37.824219 50.621094 37.304688 C 51.15625 35.644531 51.242188 33.933594 51.292969 32.207031 C 51.308594 31.9375 51.15625 31.835938 50.972656 31.71875 C 50.046875 31.132812 49.144531 30.511719 48.21875 29.941406 C 47.96875 29.789062 47.867188 29.621094 47.882812 29.320312 C 47.902344 28.148438 47.882812 26.972656 47.902344 25.800781 C 47.902344 25.480469 47.78125 25.378906 47.5 25.511719 C 46.894531 25.816406 46.339844 25.699219 45.753906 25.414062 C 45.097656 25.074219 44.476562 25.292969 43.871094 25.597656 C 44.445312 25.664062 45.046875 25.664062 45.417969 26.167969 C 45.636719 26.46875 45.90625 26.621094 46.242188 26.71875 C 46.574219 26.820312 46.910156 26.921875 47.265625 27.023438 C 47.414062 27.054688 47.566406 27.089844 47.546875 27.273438 C 47.515625 27.960938 47.546875 28.667969 47.398438 29.386719 C 46.121094 28.566406 44.878906 27.761719 43.585938 26.921875 C 43.570312 27.089844 43.554688 27.140625 43.570312 27.191406 C 43.585938 27.308594 43.621094 27.40625 43.640625 27.527344 C 43.921875 28.765625 44.074219 30.023438 43.9375 31.300781 C 43.789062 32.640625 43.335938 33.800781 41.859375 34.316406 C 42.78125 34.890625 43.671875 35.425781 44.5625 35.980469 C 45.617188 36.632812 45.601562 36.632812 45.417969 37.855469 C 45.347656 38.261719 45.25 38.261719 44.945312 38.074219 C 43.972656 37.488281 43 36.9375 42.027344 36.363281 C 41.390625 35.996094 40.769531 35.628906 40.0625 35.226562 C 40.617188 39.636719 39.425781 43.292969 35.832031 46.027344 C 36.035156 46.0625 36.171875 46.09375 36.300781 46.128906 C 38.5 46.429688 40.667969 46.96875 42.730469 47.804688 C 43.535156 48.125 43.351562 47.921875 43.21875 48.761719 C 43.136719 49.214844 42.984375 49.230469 42.597656 49.0625 C 40.5 48.175781 38.386719 47.320312 36.269531 46.445312 C 36 46.328125 35.867188 46.261719 35.882812 46.699219 C 35.917969 48.492188 35.53125 50.171875 34.273438 51.5625 C 34.039062 51.8125 33.785156 52.03125 33.535156 52.265625 C 33.550781 52.320312 33.566406 52.351562 33.585938 52.402344 C 34.375 52.402344 35.164062 52.382812 35.933594 52.402344 C 37.644531 52.433594 39.34375 52.570312 41.003906 53.003906 C 42.0625 53.289062 41.945312 53.15625 41.574219 54.113281 C 41.507812 54.3125 41.390625 54.496094 41.320312 54.683594 C 41.222656 54.949219 41.054688 55.035156 40.769531 55.019531 C 39.726562 54.933594 38.6875 54.902344 37.644531 54.816406 C 36.035156 54.683594 34.441406 54.53125 32.847656 54.382812 C 30.933594 54.195312 29.054688 53.945312 27.15625 53.660156 C 26.71875 53.59375 26.6875 53.742188 26.855469 54.078125 C 27.289062 54.949219 27.726562 55.839844 28.144531 56.730469 C 28.230469 56.914062 28.398438 57.015625 28.550781 57.113281 C 29.757812 57.886719 30.898438 58.625 32.039062 59.378906 Z M 39.609375 37.019531 C 39.644531 36.984375 39.675781 36.953125 39.609375 36.902344 C 39.609375 36.902344 39.574219 36.9375 39.542969 36.96875 C 39.507812 37.003906 39.476562 37.035156 39.441406 37.070312 C 39.390625 37.105469 39.34375 37.136719 39.289062 37.1875 C 36.085938 40.574219 32.980469 44.066406 30.3125 47.890625 C 29.40625 49.179688 28.582031 50.523438 28.046875 52.015625 C 27.929688 52.351562 27.996094 52.433594 28.347656 52.433594 C 29.273438 52.417969 30.175781 52.417969 31.101562 52.433594 C 31.4375 52.433594 31.570312 52.335938 31.6875 52.015625 C 33.148438 48.15625 34.925781 44.449219 37.042969 40.929688 C 37.8125 39.636719 38.703125 38.394531 39.527344 37.136719 C 39.542969 37.085938 39.574219 37.054688 39.609375 37.019531 Z M 58.910156 43.191406 C 58.910156 43.359375 58.894531 43.410156 58.910156 43.460938 C 59.414062 45.359375 60.070312 47.167969 61.078125 48.84375 C 61.796875 50.070312 62.671875 51.175781 63.878906 51.980469 C 64.03125 52.082031 64.183594 52.214844 64.398438 52.132812 C 65.523438 51.648438 66.664062 51.160156 67.855469 50.65625 C 63.394531 49.9375 60.890625 46.953125 58.910156 43.191406 Z M 58.910156 43.191406 "/>
<path style=" stroke:none;fill-rule:nonzero;fill:rgb(24.313725%,74.901961%,73.72549%);fill-opacity:1;" d="M 32.039062 59.378906 C 30.898438 58.625 29.757812 57.886719 28.617188 57.132812 C 28.464844 57.03125 28.296875 56.929688 28.214844 56.746094 C 27.792969 55.859375 27.359375 54.984375 26.921875 54.09375 C 26.753906 53.761719 26.769531 53.609375 27.222656 53.675781 C 29.121094 53.960938 31.015625 54.214844 32.914062 54.398438 C 34.507812 54.550781 36.117188 54.699219 37.714844 54.832031 C 38.753906 54.917969 39.796875 54.949219 40.835938 55.035156 C 41.121094 55.050781 41.289062 54.96875 41.390625 54.699219 C 41.457031 54.496094 41.558594 54.3125 41.640625 54.128906 C 42.007812 53.171875 42.128906 53.308594 41.070312 53.023438 C 39.410156 52.585938 37.714844 52.433594 36 52.417969 C 35.210938 52.402344 34.421875 52.417969 33.652344 52.417969 C 33.636719 52.367188 33.617188 52.335938 33.601562 52.285156 C 33.851562 52.046875 34.121094 51.832031 34.339844 51.578125 C 35.582031 50.203125 35.984375 48.507812 35.953125 46.714844 C 35.933594 46.277344 36.066406 46.347656 36.335938 46.464844 C 38.453125 47.335938 40.566406 48.191406 42.664062 49.082031 C 43.050781 49.246094 43.21875 49.230469 43.285156 48.777344 C 43.4375 47.957031 43.605469 48.140625 42.800781 47.824219 C 40.734375 46.984375 38.585938 46.445312 36.371094 46.144531 C 36.21875 46.128906 36.085938 46.09375 35.902344 46.042969 C 39.492188 43.292969 40.683594 39.652344 40.128906 35.242188 C 40.820312 35.644531 41.457031 36.011719 42.09375 36.382812 C 43.066406 36.953125 44.042969 37.507812 45.015625 38.09375 C 45.316406 38.277344 45.433594 38.277344 45.484375 37.875 C 45.667969 36.648438 45.6875 36.648438 44.628906 35.996094 C 43.738281 35.445312 42.847656 34.90625 41.925781 34.335938 C 43.402344 33.816406 43.855469 32.660156 44.007812 31.316406 C 44.140625 30.042969 43.972656 28.785156 43.707031 27.542969 C 43.6875 27.441406 43.65625 27.324219 43.640625 27.207031 C 43.640625 27.15625 43.640625 27.105469 43.65625 26.9375 C 44.945312 27.777344 46.1875 28.582031 47.464844 29.402344 C 47.617188 28.683594 47.582031 27.980469 47.617188 27.292969 C 47.617188 27.105469 47.464844 27.074219 47.332031 27.039062 C 46.996094 26.957031 46.644531 26.855469 46.308594 26.738281 C 45.988281 26.636719 45.71875 26.484375 45.484375 26.183594 C 45.117188 25.679688 44.511719 25.699219 43.9375 25.613281 C 44.542969 25.3125 45.164062 25.109375 45.820312 25.429688 C 46.40625 25.730469 46.960938 25.847656 47.566406 25.527344 C 47.851562 25.378906 47.96875 25.480469 47.96875 25.816406 C 47.953125 26.988281 47.96875 28.164062 47.953125 29.339844 C 47.953125 29.640625 48.050781 29.804688 48.289062 29.957031 C 49.210938 30.546875 50.117188 31.148438 51.039062 31.734375 C 51.222656 31.851562 51.375 31.953125 51.359375 32.222656 C 51.292969 33.949219 51.207031 35.660156 50.6875 37.324219 C 50.519531 37.839844 50.300781 38.34375 49.933594 38.765625 C 49.746094 38.984375 49.578125 39.03125 49.328125 38.863281 C 48.421875 38.292969 47.5 37.742188 46.574219 37.171875 C 46.523438 37.136719 46.457031 37.121094 46.355469 37.070312 C 46.273438 37.554688 46.1875 38.042969 46.105469 38.511719 C 46.054688 38.765625 46.273438 38.796875 46.40625 38.882812 C 47.398438 39.46875 48.40625 40.054688 49.414062 40.628906 C 49.644531 40.757812 49.765625 40.910156 49.78125 41.179688 C 50.082031 44.433594 49.644531 47.554688 48.070312 50.472656 C 48.003906 50.605469 47.96875 50.808594 47.734375 50.742188 C 47.699219 50.707031 47.667969 50.675781 47.632812 50.65625 C 46.710938 49.699219 45.535156 49.097656 44.359375 48.476562 C 44.175781 48.375 44.109375 48.476562 44.058594 48.644531 C 43.773438 49.433594 43.789062 49.484375 44.578125 49.820312 C 44.644531 49.851562 44.730469 49.871094 44.796875 49.902344 C 46.121094 50.4375 46.171875 50.539062 45.820312 51.949219 C 45.753906 52.199219 45.667969 52.453125 45.570312 52.667969 C 45.234375 53.375 44.695312 53.84375 43.921875 54.046875 C 43.640625 54.113281 43.402344 54.128906 43.136719 53.894531 C 42.679688 53.492188 42.664062 53.527344 42.445312 54.0625 C 42.363281 54.28125 42.277344 54.515625 42.160156 54.734375 C 42.042969 54.96875 42.128906 55.050781 42.363281 55.050781 C 42.480469 55.050781 42.582031 55.050781 42.699219 55.035156 C 45.265625 54.867188 47.835938 54.683594 50.386719 54.515625 C 50.671875 54.496094 50.824219 54.363281 50.921875 54.128906 C 51.242188 53.425781 51.492188 52.703125 51.761719 51.980469 C 51.914062 51.5625 51.761719 51.527344 51.410156 51.546875 C 50.335938 51.59375 49.277344 51.796875 48.234375 52.101562 C 47.582031 52.285156 46.945312 52.519531 46.1875 52.753906 C 46.675781 52.117188 47.027344 51.527344 47.28125 50.890625 C 47.332031 50.757812 47.414062 50.675781 47.566406 50.707031 C 47.597656 50.742188 47.632812 50.773438 47.667969 50.808594 C 48.289062 51.511719 48.1875 51.378906 48.554688 50.707031 C 49.578125 48.828125 50.132812 46.816406 50.300781 44.6875 C 50.351562 43.980469 50.367188 43.964844 50.972656 44.265625 C 51.679688 44.617188 52.367188 45.003906 53.054688 45.40625 C 53.324219 45.558594 53.40625 45.558594 53.507812 45.222656 C 53.640625 44.753906 53.574219 44.449219 53.121094 44.199219 C 52.367188 43.78125 51.59375 43.359375 50.769531 43.074219 C 50.503906 42.972656 50.335938 42.859375 50.367188 42.539062 C 50.386719 42.386719 50.351562 42.21875 50.335938 42.050781 C 50.25 41.398438 50.167969 40.757812 50.601562 40.175781 C 50.804688 39.886719 50.90625 39.519531 50.941406 39.167969 C 50.972656 38.816406 51.105469 38.816406 51.410156 38.898438 C 52.367188 39.152344 53.289062 39.46875 54.179688 39.871094 C 54.449219 39.988281 54.597656 39.972656 54.613281 39.652344 C 54.613281 39.535156 54.648438 39.433594 54.664062 39.316406 C 54.832031 38.363281 54.832031 38.378906 53.84375 38.242188 C 52.917969 38.109375 51.980469 38.128906 51.007812 38.195312 C 51.609375 36.582031 51.746094 34.941406 51.84375 33.261719 C 51.945312 31.617188 51.878906 29.976562 51.828125 28.195312 C 53.1875 29.203125 54.449219 30.144531 55.773438 31.113281 C 55.875 30.460938 55.90625 29.875 55.90625 29.269531 C 55.90625 28.832031 56.058594 28.332031 55.875 27.996094 C 55.707031 27.660156 55.117188 27.742188 54.734375 27.59375 C 54.363281 27.457031 54.042969 27.324219 53.792969 26.972656 C 53.421875 26.453125 52.785156 26.535156 52.164062 26.417969 C 52.933594 26.117188 53.605469 25.914062 54.34375 26.351562 C 54.800781 26.621094 55.285156 26.636719 55.789062 26.417969 C 56.257812 26.199219 56.292969 26.234375 56.292969 26.769531 C 56.292969 28.214844 56.292969 29.671875 56.292969 31.113281 C 56.292969 31.402344 56.378906 31.585938 56.613281 31.753906 C 57.402344 32.324219 58.191406 32.910156 58.976562 33.496094 C 59.113281 33.597656 59.246094 33.683594 59.3125 33.832031 C 60.070312 35.527344 60.472656 37.269531 59.984375 39.132812 C 59.714844 40.140625 59.214844 41.03125 58.390625 41.765625 C 58.023438 40.390625 57.199219 39.46875 55.957031 38.863281 C 55.589844 38.679688 55.503906 38.78125 55.4375 39.152344 C 55.234375 40.339844 55.203125 40.410156 56.277344 40.960938 C 57.535156 41.617188 57.953125 42.570312 57.769531 43.914062 C 57.617188 45.003906 57.167969 45.925781 56.492188 46.78125 C 56.292969 47.035156 56.175781 46.882812 56.058594 46.730469 C 55.554688 46.128906 55 45.574219 54.34375 45.105469 C 54.179688 45.359375 54.195312 45.625 54.113281 45.859375 C 54.0625 46.011719 54.144531 46.09375 54.261719 46.179688 C 54.449219 46.296875 54.613281 46.445312 54.816406 46.5625 C 56.058594 47.253906 56.578125 48.394531 56.8125 49.75 C 57.046875 51.078125 57 52.402344 56.980469 53.84375 C 56.175781 52.820312 55.203125 52.199219 54.042969 51.863281 C 52.71875 51.496094 52.71875 51.480469 52.28125 52.753906 C 52.113281 53.238281 51.929688 53.726562 51.726562 54.195312 C 51.625 54.414062 51.679688 54.480469 51.914062 54.464844 C 54.34375 54.296875 56.777344 54.128906 59.230469 53.945312 C 60.371094 53.859375 61.511719 53.929688 62.636719 53.640625 C 64.953125 53.070312 67.234375 52.382812 69.503906 51.714844 C 72.640625 50.773438 75.796875 49.835938 78.933594 48.894531 C 79.035156 48.863281 79.152344 48.84375 79.320312 48.796875 C 79.101562 49.199219 78.867188 49.449219 78.429688 49.566406 C 75.746094 50.320312 73.058594 51.09375 70.359375 51.863281 C 70.140625 51.933594 69.9375 51.949219 69.90625 52.265625 C 69.871094 52.484375 69.621094 52.503906 69.449219 52.554688 C 68.175781 52.972656 66.917969 53.375 65.574219 53.828125 C 65.710938 53.910156 65.777344 53.945312 65.839844 53.976562 C 66.144531 54.148438 66.160156 54.3125 65.824219 54.480469 C 65.492188 54.648438 65.15625 54.800781 64.835938 54.984375 C 63.660156 55.707031 62.890625 56.679688 62.65625 58.070312 C 62.605469 58.421875 62.535156 58.757812 62.46875 59.113281 C 62.25 59.847656 62.25 59.863281 61.460938 59.847656 C 60.707031 59.847656 59.953125 59.832031 59.195312 59.816406 C 56.964844 59.800781 54.75 59.800781 52.535156 59.78125 C 51.828125 59.847656 51.242188 59.597656 50.636719 59.261719 C 47.582031 57.582031 44.527344 57.550781 41.574219 59.515625 C 41.421875 59.613281 41.253906 59.664062 41.070312 59.648438 C 40.71875 59.648438 40.363281 59.648438 40.011719 59.648438 C 38.015625 59.597656 36.019531 59.5625 34.003906 59.53125 C 33.332031 59.445312 32.679688 59.582031 32.039062 59.378906 Z M 32.039062 59.378906 "/>
<path style=" stroke:none;fill-rule:nonzero;fill:rgb(24.313725%,74.901961%,73.72549%);fill-opacity:1;" d="M 63.445312 68.46875 C 64.199219 67.078125 65.339844 66.222656 66.933594 66.054688 C 67.421875 66.003906 67.757812 65.871094 68.09375 65.46875 C 69.402344 63.890625 70.929688 62.652344 73.027344 62.347656 C 74.753906 62.097656 76.214844 62.699219 77.542969 63.773438 C 77.84375 64.011719 77.910156 64.410156 78.046875 64.746094 C 78.199219 65.117188 78.328125 65.265625 78.765625 65.046875 C 79.355469 64.730469 80.007812 64.546875 80.699219 64.476562 C 81.117188 64.429688 81.519531 64.460938 81.972656 64.730469 C 81.050781 65.101562 80.210938 65.453125 79.40625 65.90625 C 78.648438 66.324219 77.945312 66.777344 77.304688 67.363281 C 76.582031 68.050781 76.015625 68.839844 76.03125 70.015625 C 75.242188 69.207031 74.386719 68.6875 73.445312 68.320312 C 71.316406 67.480469 69.117188 67.464844 66.882812 67.765625 C 65.839844 67.917969 64.835938 68.152344 63.828125 68.453125 C 63.710938 68.46875 63.578125 68.539062 63.445312 68.46875 Z M 63.445312 68.46875 "/>
<path style=" stroke:none;fill-rule:nonzero;fill:rgb(24.313725%,74.901961%,73.72549%);fill-opacity:1;" d="M 36.335938 68.90625 C 35.5 68.570312 34.640625 68.320312 33.71875 68.269531 C 31.855469 68.1875 30.363281 68.925781 29.238281 70.382812 C 28.984375 70.703125 28.902344 70.734375 28.683594 70.347656 C 27.40625 68.1875 25.8125 66.308594 23.597656 65.046875 C 23.078125 64.746094 22.492188 64.546875 21.804688 64.292969 C 22.722656 63.941406 23.566406 63.808594 24.421875 63.875 C 25.949219 63.992188 27.257812 64.578125 28.3125 65.6875 C 28.566406 65.953125 28.75 65.972656 29.085938 65.785156 C 30.847656 64.847656 32.578125 64.914062 34.1875 66.140625 C 35.144531 66.859375 35.867188 67.765625 36.386719 68.855469 C 36.371094 68.855469 36.355469 68.871094 36.335938 68.90625 Z M 36.335938 68.90625 "/>
<path style=" stroke:none;fill-rule:nonzero;fill:rgb(100%,84.313725%,58.431373%);fill-opacity:1;" d="M 52.515625 59.78125 C 54.75 59.800781 56.964844 59.800781 59.179688 59.816406 C 57.90625 60.488281 56.578125 61.054688 55.453125 61.980469 C 54.632812 62.632812 54.613281 62.617188 54.0625 61.746094 C 53.605469 61.023438 53.070312 60.402344 52.515625 59.78125 Z M 52.515625 59.78125 "/>
<path style=" stroke:none;fill-rule:nonzero;fill:rgb(100%,84.313725%,58.431373%);fill-opacity:1;" d="M 33.988281 59.53125 C 35.984375 59.582031 37.980469 59.613281 39.996094 59.648438 C 39.59375 60.269531 39.105469 60.820312 38.753906 61.476562 C 38.621094 61.726562 38.484375 61.527344 38.367188 61.441406 C 37.261719 60.535156 35.984375 59.949219 34.574219 59.648438 C 34.390625 59.597656 34.1875 59.5625 33.988281 59.53125 Z M 33.988281 59.53125 "/>
<path style=" stroke:none;fill-rule:nonzero;fill:rgb(24.313725%,74.901961%,73.72549%);fill-opacity:1;" d="M 13.527344 62.128906 C 13.496094 62.097656 13.460938 62.0625 13.527344 62.027344 C 13.527344 62.027344 13.578125 62.0625 13.59375 62.082031 C 13.5625 62.097656 13.542969 62.113281 13.527344 62.128906 Z M 13.527344 62.128906 "/>
<path style=" stroke:none;fill-rule:nonzero;fill:rgb(24.313725%,74.901961%,73.72549%);fill-opacity:1;" d="M 63.425781 68.46875 C 63.425781 68.488281 63.410156 68.503906 63.410156 68.523438 C 63.410156 68.523438 63.410156 68.503906 63.410156 68.503906 C 63.410156 68.488281 63.425781 68.488281 63.425781 68.46875 C 63.445312 68.46875 63.425781 68.46875 63.425781 68.46875 Z M 63.425781 68.46875 "/>
<path style=" stroke:none;fill-rule:nonzero;fill:rgb(24.313725%,74.901961%,73.72549%);fill-opacity:1;" d="M 36.402344 68.839844 C 36.421875 68.855469 36.472656 68.90625 36.453125 68.90625 C 36.421875 68.972656 36.371094 68.941406 36.335938 68.90625 C 36.355469 68.871094 36.371094 68.855469 36.402344 68.839844 Z M 36.402344 68.839844 "/>
<path style=" stroke:none;fill-rule:nonzero;fill:rgb(24.313725%,74.901961%,73.72549%);fill-opacity:1;" d="M 39.527344 37.136719 C 38.703125 38.410156 37.832031 39.636719 37.042969 40.929688 C 34.910156 44.46875 33.128906 48.15625 31.6875 52.015625 C 31.570312 52.320312 31.4375 52.433594 31.101562 52.433594 C 30.175781 52.417969 29.273438 52.417969 28.347656 52.433594 C 27.996094 52.433594 27.945312 52.351562 28.046875 52.015625 C 28.582031 50.523438 29.40625 49.179688 30.3125 47.890625 C 32.980469 44.046875 36.085938 40.574219 39.289062 37.1875 C 39.34375 37.136719 39.390625 37.105469 39.441406 37.070312 C 39.476562 37.085938 39.492188 37.121094 39.527344 37.136719 Z M 39.527344 37.136719 "/>
<path style=" stroke:none;fill-rule:nonzero;fill:rgb(24.313725%,74.901961%,73.72549%);fill-opacity:1;" d="M 58.910156 43.191406 C 60.890625 46.953125 63.394531 49.953125 67.855469 50.65625 C 66.664062 51.160156 65.542969 51.648438 64.398438 52.132812 C 64.183594 52.234375 64.03125 52.101562 63.878906 51.980469 C 62.6875 51.175781 61.796875 50.070312 61.078125 48.84375 C 60.085938 47.167969 59.414062 45.339844 58.910156 43.460938 C 58.910156 43.410156 58.910156 43.359375 58.910156 43.191406 Z M 58.910156 43.191406 "/>
<path style=" stroke:none;fill-rule:nonzero;fill:rgb(24.313725%,74.901961%,73.72549%);fill-opacity:1;" d="M 39.558594 36.96875 C 39.574219 36.953125 39.609375 36.902344 39.628906 36.902344 C 39.675781 36.9375 39.660156 36.96875 39.628906 37.019531 C 39.59375 37.003906 39.574219 36.984375 39.558594 36.96875 Z M 39.558594 36.96875 "/>
<path style=" stroke:none;fill-rule:nonzero;fill:rgb(24.313725%,74.901961%,73.72549%);fill-opacity:1;" d="M 39.609375 37.019531 C 39.574219 37.054688 39.558594 37.085938 39.527344 37.121094 C 39.507812 37.105469 39.476562 37.070312 39.457031 37.054688 C 39.492188 37.019531 39.527344 36.984375 39.558594 36.953125 C 39.574219 36.984375 39.59375 37.003906 39.609375 37.019531 Z M 39.609375 37.019531 "/>
<path style=" stroke:none;fill-rule:nonzero;fill:rgb(100%,84.313725%,58.431373%);fill-opacity:1;" d="M 47.582031 50.707031 C 47.429688 50.675781 47.347656 50.742188 47.296875 50.890625 C 47.042969 51.527344 46.675781 52.132812 46.207031 52.753906 C 46.945312 52.519531 47.597656 52.300781 48.253906 52.101562 C 49.292969 51.796875 50.351562 51.613281 51.425781 51.546875 C 51.777344 51.527344 51.929688 51.5625 51.777344 51.980469 C 51.527344 52.703125 51.257812 53.425781 50.941406 54.128906 C 50.839844 54.363281 50.6875 54.496094 50.402344 54.515625 C 47.835938 54.683594 45.265625 54.851562 42.714844 55.035156 C 42.597656 55.035156 42.496094 55.035156 42.378906 55.050781 C 42.144531 55.050781 42.0625 54.96875 42.175781 54.734375 C 42.277344 54.515625 42.363281 54.296875 42.464844 54.0625 C 42.679688 53.527344 42.699219 53.492188 43.152344 53.894531 C 43.402344 54.128906 43.65625 54.128906 43.9375 54.046875 C 44.710938 53.84375 45.25 53.375 45.585938 52.667969 C 45.6875 52.433594 45.769531 52.183594 45.835938 51.949219 C 46.1875 50.554688 46.121094 50.4375 44.8125 49.902344 C 44.746094 49.871094 44.664062 49.851562 44.59375 49.820312 C 43.808594 49.484375 43.773438 49.433594 44.074219 48.644531 C 44.140625 48.476562 44.207031 48.394531 44.378906 48.476562 C 45.550781 49.082031 46.710938 49.683594 47.652344 50.65625 C 47.597656 50.691406 47.582031 50.707031 47.582031 50.707031 Z M 47.582031 50.707031 "/>
<path style=" stroke:none;fill-rule:nonzero;fill:rgb(100%,84.313725%,58.431373%);fill-opacity:1;" d="M 47.683594 50.808594 C 47.652344 50.773438 47.617188 50.742188 47.582031 50.707031 L 47.617188 50.675781 C 47.652344 50.707031 47.683594 50.742188 47.714844 50.757812 Z M 47.683594 50.808594 "/>
</g>
</svg>
